PathFileType	4	(X/Y/Z)	 s03c0101.trc
DataRate	CameraRate	NumFrames	NumMarkers	Units	OrigDataRate	OrigDataStartFrame	OrigNumFrames
200	200	5	52	mm	200	501	2000
Frame#	Time	racr			lacr			c7			jug			rlel			rdr			llel			ldr			s2			lic			ric			lasi			rasi			rpsi			lpsi			rgt			lgt			rth1			rth2			rth3			rth4			rlfc			rmfc			rsh1			rsh2			rsh3			rsh4			rlmal			rmmal			rcal			rtoe			rmt5			rmt1			lth1			lth2			lth4			lth3			llfc			lmfc			lsh1			lsh2			lsh3			lsh4			llmal			lmmal			lcal			ltoe			lmt1			lmt5			SBIKE			LBIKE			RBIKE			
		X1	Y1	Z1	X2	Y2	Z2	X3	Y3	Z3	X4	Y4	Z4	X5	Y5	Z5	X6	Y6	Z6	X7	Y7	Z7	X8	Y8	Z8	X9	Y9	Z9	X10	Y10	Z10	X11	Y11	Z11	X12	Y12	Z12	X13	Y13	Z13	X14	Y14	Z14	X15	Y15	Z15	X16	Y16	Z16	X17	Y17	Z17	X18	Y18	Z18	X19	Y19	Z19	X20	Y20	Z20	X21	Y21	Z21	X22	Y22	Z22	X23	Y23	Z23	X24	Y24	Z24	X25	Y25	Z25	X26	Y26	Z26	X27	Y27	Z27	X28	Y28	Z28	X29	Y29	Z29	X30	Y30	Z30	X31	Y31	Z31	X32	Y32	Z32	X33	Y33	Z33	X34	Y34	Z34	X35	Y35	Z35	X36	Y36	Z36	X37	Y37	Z37	X38	Y38	Z38	X39	Y39	Z39	X40	Y40	Z40	X41	Y41	Z41	X42	Y42	Z42	X43	Y43	Z43	X44	Y44	Z44	X45	Y45	Z45	X46	Y46	Z46	X47	Y47	Z47	X48	Y48	Z48	X49	Y49	Z49	X50	Y50	Z50	X51	Y51	Z51	X52	Y52	Z52	
501	2.5050	449.496270	1420.904238	-63.714932	486.398610	1424.668442	-362.970161	391.852808	1506.212310	-223.074634	416.727087	1331.899398	-218.612897	498.199019	1152.938697	22.567283	727.708941	964.289239	-32.815567	558.833885	1164.219210	-452.404102	753.585750	929.163723	-412.417573	-113.984807	1205.231837	-255.479338	64.935407	1234.190677	-424.411816	30.667868	1257.616257	-60.921290	84.255363	1167.827030	-384.910616	73.962430	1196.940754	-104.135021	-95.239401	1260.603783	-214.888134	-83.831951	1256.596137	-295.533358	2.788508	1160.605385	-49.389785	17.764131	1120.946047	-446.666705	125.020765	1049.743391	-23.570017	210.118491	1023.778638	-22.405770	271.605055	963.538124	-26.862786	228.847912	1054.407811	-33.501416	370.231572	873.196517	-53.585953	379.531057	861.642231	-176.032244	335.118106	706.368471	-34.949804	334.736233	618.521334	-51.709547	290.985845	542.268595	-55.154486	364.300526	614.141443	-77.235563	251.838806	415.877195	-73.607629	272.857398	431.447869	-163.722160	200.215438	350.833943	-115.986775	500.106428	436.130535	-100.964385	386.726129	387.213072	-36.167336	411.283708	410.533071	-149.571960	125.192649	1018.905155	-472.363964	199.604137	975.868684	-482.282206	225.579391	999.828383	-472.475481	243.682348	898.209310	-486.956606	334.283352	804.625636	-483.899377	344.549812	790.073381	-356.827623	236.414507	657.421427	-485.440900	217.403633	579.645606	-459.774781	155.133109	515.306962	-441.800514	248.222819	566.567976	-437.660294	89.496621	420.414556	-410.220519	132.135484	413.682733	-327.023931	24.827959	437.337250	-358.152784	212.007802	189.464765	-349.748265	151.863518	261.335096	-310.915683	120.642759	267.340255	-425.189237	-209.769984	946.809755	-228.496188	-3.023041	83.613750	-431.371076	-6.679270	80.983998	-31.057814	
502	2.5100	449.166884	1419.784961	-63.487513	485.790311	1423.806617	-363.173636	391.472793	1505.206453	-222.955319	416.599368	1330.605669	-218.712430	497.206480	1151.673681	22.733990	727.264884	963.983888	-32.970291	557.968647	1163.131282	-452.697800	753.190529	928.925978	-412.683028	-114.194478	1203.696086	-253.641437	63.858566	1232.780694	-423.322490	30.909164	1256.192292	-59.715677	82.543458	1166.281473	-382.539557	74.511394	1194.713494	-103.168929	-95.343231	1258.969702	-213.696405	-84.497587	1255.233398	-294.500484	2.763435	1158.218276	-48.432301	16.758363	1120.307138	-445.747299	123.779472	1045.526137	-23.061140	208.543372	1018.476902	-21.901974	269.202059	957.470720	-26.784401	227.769321	1048.933220	-32.408725	367.303065	866.633464	-53.898728	377.441602	856.202706	-176.593090	333.651639	699.342535	-34.830031	334.525351	611.529705	-51.479422	291.970132	534.602492	-55.142387	364.294528	607.483825	-76.789600	254.195357	407.554647	-73.512192	275.079785	423.347610	-163.569983	202.592223	342.556506	-115.687020	502.699817	428.235016	-101.103903	389.123898	379.124605	-36.060007	413.830133	402.577937	-149.637206	124.683218	1020.193563	-471.942420	199.544174	978.735220	-483.078444	225.250994	1002.887260	-472.773161	244.879607	901.749814	-488.744618	336.494158	808.911216	-486.498358	347.065396	794.151062	-359.353576	237.555260	662.524188	-486.933294	217.477870	585.131328	-460.651425	154.463684	521.781055	-442.326757	248.267548	571.718938	-438.271053	87.382524	428.231053	-410.115621	130.263003	421.350795	-327.104790	22.795600	445.445848	-357.990373	209.053219	196.599873	-349.501922	149.215952	269.184600	-311.273492	118.007448	275.130072	-425.208712	-209.800424	946.739631	-228.475216	-3.041442	83.602000	-431.363458	-6.697698	80.981284	-31.057088	
503	2.5150	448.955854	1418.912686	-63.329420	485.349018	1423.050581	-363.448390	391.138276	1504.125065	-222.332518	416.556302	1329.447655	-218.812607	496.265858	1150.463304	23.005009	726.835268	963.734546	-33.090481	557.085802	1162.169482	-453.133335	752.727568	928.795258	-412.838656	-114.338388	1202.371076	-251.559172	62.807106	1231.620072	-422.158457	31.396837	1254.944342	-58.422508	81.808929	1165.429466	-381.680095	75.133005	1192.510025	-102.155645	-95.402860	1257.568303	-212.179093	-84.986581	1253.976734	-293.371360	3.003941	1156.014551	-47.480125	15.872166	1120.223607	-444.963383	122.688932	1041.132611	-22.551559	206.963247	1012.833702	-21.256519	266.748470	951.054074	-26.760593	226.709145	1043.171666	-31.290807	364.171636	859.865690	-54.234220	375.231634	850.107749	-176.648127	332.178646	692.179312	-34.660630	334.261520	604.301546	-51.195250	292.651433	526.864247	-54.989643	364.115953	600.632123	-76.393789	256.270307	399.404632	-73.446042	277.171804	415.282186	-163.409754	204.867085	334.457312	-115.497731	505.068775	420.028740	-101.268269	391.634442	370.987262	-36.115035	416.105228	394.421817	-149.575363	123.773271	1021.780624	-472.043914	199.266912	981.681312	-483.742184	224.605926	1006.109393	-473.090586	245.819449	905.480685	-490.537838	338.553854	813.495131	-489.112693	349.788400	798.428838	-361.772884	238.382971	667.967132	-488.448759	217.368176	590.870425	-461.435153	153.684716	528.421804	-442.797731	248.089286	577.426799	-439.661056	85.305407	436.233171	-409.929472	128.397411	429.310169	-327.059336	20.678262	453.482103	-357.672938	206.647176	204.356084	-349.336899	146.910773	276.902884	-310.609545	115.673083	283.141413	-425.138382	-209.808842	946.696057	-228.432217	-3.053375	83.589626	-431.370107	-6.706294	80.931170	-31.046812	
504	2.5200	448.953231	1417.992722	-63.299385	484.826521	1422.351418	-363.820420	391.138440	1503.314504	-222.823600	416.568681	1328.413747	-218.951876	495.277961	1149.332762	23.217347	726.451393	963.545033	-33.150891	556.005055	1161.324706	-453.751811	752.329539	928.788721	-413.046004	-114.435314	1201.293303	-249.114355	61.746386	1230.917963	-420.810429	32.122892	1253.678635	-57.061883	81.083322	1164.771412	-380.778809	75.825248	1190.342229	-101.098667	-95.438337	1256.392049	-210.336931	-85.387564	1253.082894	-291.843841	3.421620	1153.659063	-46.297284	14.828812	1120.451627	-444.113691	121.671174	1036.613238	-22.045242	205.466907	1006.999369	-20.763210	264.103057	944.457112	-26.795220	225.722342	1037.212253	-30.146408	360.928731	852.904785	-54.618657	372.683922	843.803450	-176.568242	330.607251	684.869628	-34.587320	333.886001	597.066175	-51.035005	293.297679	519.036329	-54.927644	363.724325	593.838631	-76.190571	258.151031	391.258414	-73.168876	279.095008	407.238507	-163.151154	207.111794	326.311378	-115.330688	507.191238	411.594288	-101.434324	393.933829	362.561528	-36.241676	418.112745	386.348968	-149.496802	122.697020	1023.493986	-472.060141	198.819081	984.849934	-484.363895	223.814265	1009.478115	-473.391947	246.568727	909.420212	-492.316238	340.501491	818.306466	-491.783484	352.560554	802.870708	-364.065489	238.992530	673.541675	-489.967066	216.921127	596.886056	-462.310075	152.648328	535.452170	-443.164076	247.808021	583.141413	-440.717264	83.270617	444.350892	-409.661415	121.704842	440.942223	-326.289754	18.636947	461.630697	-357.277295	204.579413	212.717478	-349.417241	144.998115	285.016052	-310.497338	113.611099	291.441038	-425.064623	-209.782590	946.667823	-228.299487	-3.059349	83.570423	-431.347808	-6.703821	80.908530	-31.041980	
505	2.5250	449.196191	1417.193024	-63.315997	484.401954	1421.749497	-364.195366	391.170427	1502.538410	-222.725207	416.697043	1327.515350	-219.051201	494.131392	1148.254995	23.403707	726.037910	963.384268	-33.173407	555.097810	1160.667309	-454.442994	751.985100	928.802831	-413.303631	-114.435514	1200.402723	-246.467033	60.584008	1230.521182	-419.571933	32.965598	1252.370634	-55.626309	80.392209	1164.335583	-379.726470	76.586109	1188.221987	-100.001490	-94.617061	1255.506968	-208.628850	-85.616911	1252.627372	-290.067778	3.944481	1151.169253	-44.996113	13.702566	1120.967694	-443.106156	120.789639	1032.078530	-21.542310	204.037296	1001.125861	-20.355863	261.724767	937.682853	-26.864544	224.856236	1031.029677	-29.052826	357.501891	845.813234	-54.965999	369.804825	837.139065	-176.347835	328.849185	677.446730	-34.497368	333.621991	589.642303	-51.181289	293.832336	511.141702	-55.090382	363.207505	586.847931	-76.250423	259.652779	383.188298	-72.755809	280.501533	399.209210	-162.745364	208.728594	318.330979	-114.831963	508.968520	403.010967	-101.572568	395.841141	354.117158	-36.196191	419.822545	378.540199	-148.874436	121.607582	1025.349762	-471.980670	198.233955	988.164610	-485.027209	222.903655	1013.029447	-473.680958	247.211439	913.642360	-493.992451	342.309150	823.311930	-494.422128	355.349489	807.623957	-366.257989	239.447309	679.429448	-491.452628	216.287730	602.415114	-461.949100	151.530294	542.629871	-443.569078	247.622712	589.239989	-442.556644	81.326390	452.664301	-409.307706	121.086851	448.318083	-325.728171	16.483387	469.696653	-356.888794	203.101999	221.225320	-349.434130	143.270769	293.388364	-310.424283	111.790423	299.902663	-424.975700	-209.793240	946.649101	-228.247255	-3.065512	83.579110	-431.355823	-6.705760	80.896824	-31.035432	
